<svg width="507" height="67" viewBox="0 0 507 67" fill="none" xmlns="http://www.w3.org/2000/svg">
<path d="M22.1377 43.8218H18.0549V54.5277C22.4704 55.4955 25.2225 56.675 26.3112 58.0662L25.4039 65.5966H0.907284L0 58.0662C0.786312 57.0379 2.44967 56.0399 4.99006 55.0721V13.6093C2.51015 12.702 0.846798 11.6737 0 10.5245L0.907284 2.99403H24.9503C33.3578 3.11501 39.618 4.65739 43.7311 7.62118C47.9046 10.5245 49.9913 15.7263 49.9913 23.2265C49.9913 36.9567 40.7068 43.8218 22.1377 43.8218ZM23.4986 12.8834H18.0549V33.9324H24.1337C28.2468 33.9324 31.3013 33.1159 33.2973 31.4827C35.3538 29.8496 36.3821 27.0371 36.3821 23.045C36.3821 18.9925 35.2631 16.3009 33.0251 14.9702C30.8476 13.579 27.6721 12.8834 23.4986 12.8834Z" fill="#B03022"/>
<path d="M54.296 1.17947C57.6831 0.393157 60.8284 0 63.7317 0C66.635 0 69.0847 0.090729 71.0807 0.272187V55.5258C73.4396 56.433 75.103 57.4613 76.0708 58.6105L75.1635 65.5966H54.296L53.3887 58.6105C54.2355 57.4613 55.8988 56.433 58.3787 55.5258V11.2503C56.2617 10.5245 54.5984 9.49624 53.3887 8.16555L54.296 1.17947Z" fill="#B03022"/>
<path d="M81.6321 26.9463C81.6321 26.039 81.6624 25.0713 81.7229 24.043C87.348 21.0187 93.3966 19.5066 99.8685 19.5066C106.34 19.5066 110.968 20.7466 113.75 23.2265C116.593 25.6459 118.014 29.6984 118.014 35.3841V54.7092C120.131 55.1326 121.795 55.6467 123.004 56.2516V64.1449C119.919 65.5966 115.504 66.3224 109.758 66.3224C109.153 64.7498 108.639 62.8445 108.216 60.6065C105.615 64.4171 100.897 66.3224 94.0619 66.3224C90.0094 66.3224 86.5315 65.143 83.6282 62.784C80.7853 60.4251 79.3639 57.2194 79.3639 53.1668C79.3639 49.1143 80.6946 45.9388 83.356 43.6403C86.0778 41.2814 90.1001 40.1019 95.4228 40.1019H105.312V35.747C105.312 31.0291 102.802 28.6702 97.7818 28.6702C95.9067 28.6702 94.3643 28.8516 93.1546 29.2145C93.0337 31.7549 92.6707 33.7207 92.0659 35.1119H83.1745C82.1463 32.9949 81.6321 30.273 81.6321 26.9463ZM97.9632 57.0681C101.048 57.0681 103.498 56.1609 105.312 54.3463V46.9066H98.9612C94.6063 46.9066 92.4288 48.5699 92.4288 51.8966C92.4288 53.4088 92.8824 54.6487 93.7897 55.6165C94.7575 56.5843 96.1487 57.0681 97.9632 57.0681Z" fill="#B03022"/>
<path d="M147.566 28.7609C142.001 28.7609 139.219 33.5392 139.219 43.096C139.219 47.9348 139.975 51.322 141.487 53.2575C143.06 55.1326 145.298 56.0701 148.201 56.0701C152.798 56.0701 156.851 55.6467 160.359 54.7999L163.081 61.786C161.145 63.0562 158.544 64.1449 155.278 65.0522C152.012 65.899 148.836 66.3224 145.752 66.3224C132.687 66.3224 126.154 58.7617 126.154 43.6403C126.154 34.8094 128.422 28.4585 132.959 24.5874C137.011 21.2002 141.941 19.5066 147.748 19.5066C153.554 19.5066 158.393 20.5953 162.264 22.7728C162.325 23.3777 162.355 23.9523 162.355 24.4967C162.355 27.9443 161.569 31.2106 159.996 34.2953H152.012C151.165 32.7832 150.651 30.9686 150.469 28.8516C149.744 28.7911 148.776 28.7609 147.566 28.7609Z" fill="#B03022"/>
<path d="M188.865 66.3224C181.607 66.3224 176.133 64.3869 172.443 60.5158C168.814 56.6447 167 51.0196 167 43.6403C167 39.1644 167.635 35.3236 168.905 32.1178C170.175 28.8516 171.899 26.3415 174.077 24.5874C178.311 21.2002 183.24 19.5066 188.865 19.5066C194.49 19.5066 198.785 20.9583 201.749 23.8616C204.773 26.7044 206.285 31.8457 206.285 39.2854C206.285 43.6403 204.138 45.8178 199.843 45.8178H180.155C180.397 49.6284 181.365 52.32 183.059 53.8926C184.813 55.4653 187.565 56.2516 191.315 56.2516C193.371 56.2516 195.337 56.0096 197.212 55.5258C199.087 55.0419 200.448 54.558 201.295 54.0741L202.565 53.3483L205.287 60.6065C204.924 61.0299 204.38 61.5743 203.654 62.2397C202.989 62.8445 201.235 63.6913 198.392 64.7801C195.609 65.8083 192.434 66.3224 188.865 66.3224ZM194.581 37.743C194.702 36.8962 194.763 35.8679 194.763 34.6582C194.763 33.4485 194.279 32.1783 193.311 30.8476C192.343 29.4565 190.65 28.7609 188.23 28.7609C185.871 28.7609 184.057 29.4867 182.786 30.9384C181.516 32.39 180.669 34.8397 180.246 38.2874L194.581 37.743Z" fill="#B03022"/>
<path d="M210.767 1.17947C214.154 0.393157 217.299 0 220.203 0C223.106 0 225.556 0.090729 227.552 0.272187V22.9543C229.003 21.9865 230.939 21.17 233.358 20.5046C235.778 19.8393 237.925 19.5066 239.8 19.5066C245.788 19.5066 249.931 20.9583 252.23 23.8616C254.528 26.7649 255.677 31.1803 255.677 37.1079V55.5258C258.036 56.433 259.7 57.4613 260.668 58.6105L259.76 65.5966H238.893L237.985 58.6105C238.832 57.4613 240.496 56.433 242.975 55.5258V37.5615C242.975 34.2953 242.431 32.1178 241.342 31.0291C240.314 29.8799 238.409 29.3053 235.627 29.3053C232.844 29.3053 230.153 30.273 227.552 32.2086V55.5258C229.911 56.433 231.574 57.4613 232.542 58.6105L231.634 65.5966H210.767L209.86 58.6105C210.706 57.4613 212.37 56.433 214.85 55.5258V11.2503C212.733 10.5245 211.069 9.49624 209.86 8.16555L210.767 1.17947Z" fill="#B03022"/>
<path d="M284.802 66.3224C277.665 66.3224 272.372 64.4171 268.925 60.6065C265.477 56.796 263.753 51.0498 263.753 43.3682C263.753 35.626 265.658 29.7287 269.469 25.6761C273.34 21.5631 278.874 19.5066 286.072 19.5066C293.27 19.5066 298.593 21.3212 302.04 24.9503C305.549 28.5794 307.303 34.2651 307.303 42.0072C307.303 49.6889 305.337 55.677 301.405 59.9714C297.534 64.2054 292 66.3224 284.802 66.3224ZM276.818 42.5516C276.818 52.2293 279.721 57.0681 285.528 57.0681C288.492 57.0681 290.669 55.9794 292.06 53.8019C293.512 51.564 294.238 47.9348 294.238 42.9145C294.238 33.4788 291.274 28.7609 285.346 28.7609C282.443 28.7609 280.296 29.8194 278.905 31.9364C277.513 33.9929 276.818 37.5313 276.818 42.5516Z" fill="#B03022"/>
<path d="M311.773 1.17947C315.16 0.393157 318.306 0 321.209 0C324.112 0 326.562 0.090729 328.558 0.272187V55.5258C330.917 56.433 332.58 57.4613 333.548 58.6105L332.641 65.5966H311.773L310.866 58.6105C311.713 57.4613 313.376 56.433 315.856 55.5258V11.2503C313.739 10.5245 312.076 9.49624 310.866 8.16555L311.773 1.17947Z" fill="#B03022"/>
<path d="M360.884 1.17947C364.332 0.393157 367.628 0 370.773 0C373.919 0 376.61 0.090729 378.848 0.272187V54.7092C380.663 55.0116 382.326 55.5258 383.838 56.2516V63.4191C380.209 65.3547 375.612 66.3224 370.048 66.3224C369.443 66.02 368.838 65.4756 368.233 64.6893C367.689 63.903 367.386 63.1469 367.326 62.4211C365.995 63.5099 364.271 64.4474 362.154 65.2337C360.037 65.9595 357.951 66.3224 355.894 66.3224C349.362 66.3224 344.613 64.5683 341.65 61.0602C338.746 57.4915 337.295 51.6849 337.295 43.6403C337.295 34.507 339.533 28.0956 344.009 24.4059C347.94 21.1397 352.779 19.5066 358.525 19.5066C361.066 19.5066 363.606 19.809 366.146 20.4139V11.4318C363.364 10.6455 361.307 9.55672 359.977 8.16555L360.884 1.17947ZM357.799 57.0681C361.247 57.0681 364.029 56.0399 366.146 53.9834V29.6682C363.666 29.0633 361.035 28.7609 358.253 28.7609C355.471 28.7609 353.444 30.0008 352.174 32.4808C350.964 34.9002 350.36 38.5596 350.36 43.4589C350.36 48.2977 350.964 51.7756 352.174 53.8926C353.384 56.0096 355.259 57.0681 357.799 57.0681Z" fill="#B03022"/>
<path d="M389.435 26.9463C389.435 26.039 389.465 25.0713 389.526 24.043C395.151 21.0187 401.2 19.5066 407.672 19.5066C414.144 19.5066 418.771 20.7466 421.553 23.2265C424.396 25.6459 425.817 29.6984 425.817 35.3841V54.7092C427.934 55.1326 429.598 55.6467 430.807 56.2516V64.1449C427.723 65.5966 423.307 66.3224 417.561 66.3224C416.956 64.7498 416.442 62.8445 416.019 60.6065C413.418 64.4171 408.7 66.3224 401.865 66.3224C397.812 66.3224 394.334 65.143 391.431 62.784C388.588 60.4251 387.167 57.2194 387.167 53.1668C387.167 49.1143 388.498 45.9388 391.159 43.6403C393.881 41.2814 397.903 40.1019 403.226 40.1019H413.115V35.747C413.115 31.0291 410.605 28.6702 405.585 28.6702C403.71 28.6702 402.167 28.8516 400.958 29.2145C400.837 31.7549 400.474 33.7207 399.869 35.1119H390.978C389.949 32.9949 389.435 30.273 389.435 26.9463ZM405.766 57.0681C408.851 57.0681 411.301 56.1609 413.115 54.3463V46.9066H406.764C402.409 46.9066 400.232 48.5699 400.232 51.8966C400.232 53.4088 400.685 54.6487 401.593 55.6165C402.561 56.5843 403.952 57.0681 405.766 57.0681Z" fill="#B03022"/>
<path d="M450.561 8.80065V20.2324H463.535V27.8536H450.561V50.8079C450.561 52.7434 450.833 54.1648 451.377 55.0721C451.921 55.9189 453.222 56.3423 455.278 56.3423C457.335 56.3423 459.543 55.8887 461.902 54.9814L464.623 62.0582C459.966 64.4171 455.188 65.5966 450.288 65.5966C445.449 65.5966 442.153 64.5683 440.399 62.5118C438.705 60.3948 437.859 57.3403 437.859 53.3483V27.8536H433.776L432.778 22.3192C433.746 21.17 435.742 20.0207 438.766 18.8715C439.492 13.9117 441.216 10.5547 443.937 8.80065H450.561Z" fill="#B03022"/>
<path d="M489.58 66.3224C482.322 66.3224 476.848 64.3869 473.158 60.5158C469.529 56.6447 467.715 51.0196 467.715 43.6403C467.715 39.1644 468.35 35.3236 469.62 32.1178C470.89 28.8516 472.614 26.3415 474.791 24.5874C479.025 21.2002 483.955 19.5066 489.58 19.5066C495.205 19.5066 499.5 20.9583 502.464 23.8616C505.488 26.7044 507 31.8457 507 39.2854C507 43.6403 504.853 45.8178 500.558 45.8178H480.87C481.112 49.6284 482.08 52.32 483.774 53.8926C485.528 55.4653 488.28 56.2516 492.03 56.2516C494.086 56.2516 496.052 56.0096 497.927 55.5258C499.802 55.0419 501.163 54.558 502.01 54.0741L503.28 53.3483L506.002 60.6065C505.639 61.0299 505.095 61.5743 504.369 62.2397C503.704 62.8445 501.949 63.6913 499.107 64.7801C496.324 65.8083 493.149 66.3224 489.58 66.3224ZM495.296 37.743C495.417 36.8962 495.477 35.8679 495.477 34.6582C495.477 33.4485 494.994 32.1783 494.026 30.8476C493.058 29.4565 491.364 28.7609 488.945 28.7609C486.586 28.7609 484.772 29.4867 483.501 30.9384C482.231 32.39 481.384 34.8397 480.961 38.2874L495.296 37.743Z" fill="#B03022"/>
</svg>
