<svg width="841" height="111" viewBox="0 0 841 111" fill="none" xmlns="http://www.w3.org/2000/svg">
  <path d="M37.4878 72.9237H30.7235V90.6612C38.039 92.2646 42.5986 94.2187 44.4024 96.5236L42.8993 109H2.31336L0.810181 96.5236C2.11294 94.82 4.86877 93.1665 9.07768 91.5631V22.8677C4.96898 21.3645 2.21315 19.6609 0.810181 17.7569L2.31336 5.2805H42.1477C56.0771 5.48093 66.4491 8.03634 73.2635 12.9467C80.1781 17.7569 83.6355 26.3752 83.6355 38.8014C83.6355 61.5496 68.2529 72.9237 37.4878 72.9237ZM39.7426 21.6652H30.7235V56.539H40.7948C47.6092 56.539 52.6699 55.1861 55.9769 52.4804C59.3841 49.7747 61.0877 45.1148 61.0877 38.5008C61.0877 31.7866 59.2338 27.3272 55.526 25.1225C51.9183 22.8176 46.6572 21.6652 39.7426 21.6652Z" fill="#CE4536" />
  <path d="M90.7673 2.27414C96.3792 0.971386 101.59 0.320007 106.4 0.320007C111.211 0.320007 115.269 0.470326 118.576 0.770965V92.3147C122.484 93.8179 125.24 95.5215 126.844 97.4255L125.341 109H90.7673L89.2642 97.4255C90.6671 95.5215 93.423 93.8179 97.5317 92.3147V18.9595C94.0242 17.7569 91.2684 16.0533 89.2642 13.8486L90.7673 2.27414Z" fill="#CE4536" />
  <path d="M136.058 44.9645C136.058 43.4613 136.108 41.8579 136.208 40.1543C145.528 35.1437 155.549 32.6384 166.272 32.6384C176.994 32.6384 184.661 34.6928 189.27 38.8014C193.98 42.8099 196.335 49.5241 196.335 58.9441V90.9618C199.843 91.6633 202.599 92.5151 204.603 93.5172V106.595C199.492 109 192.176 110.203 182.656 110.203C181.654 107.597 180.802 104.44 180.101 100.733C175.792 107.046 167.975 110.203 156.651 110.203C149.937 110.203 144.175 108.248 139.365 104.34C134.655 100.432 132.3 95.1206 132.3 88.4064C132.3 81.6922 134.504 76.4311 138.914 72.623C143.423 68.7147 150.087 66.7606 158.906 66.7606H175.291V59.5453C175.291 51.7288 171.132 47.8205 162.814 47.8205C159.708 47.8205 157.152 48.1212 155.148 48.7224C154.948 52.9313 154.346 56.1882 153.344 58.4931H138.613C136.91 54.9857 136.058 50.4761 136.058 44.9645ZM163.115 94.8701C168.226 94.8701 172.284 93.3669 175.291 90.3606V78.0345H164.768C157.553 78.0345 153.946 80.7903 153.946 86.302C153.946 88.8073 154.697 90.8616 156.2 92.465C157.804 94.0684 160.109 94.8701 163.115 94.8701Z" fill="#CE4536" />
  <path d="M245.297 47.9708C236.077 47.9708 231.467 55.8876 231.467 71.7211C231.467 79.7381 232.72 85.35 235.225 88.5567C237.831 91.6633 241.539 93.2166 246.349 93.2166C253.965 93.2166 260.679 92.5151 266.492 91.1121L271.001 102.687C267.794 104.791 263.485 106.595 258.074 108.098C252.662 109.501 247.401 110.203 242.29 110.203C220.645 110.203 209.822 97.676 209.822 72.623C209.822 57.9921 213.58 47.4698 221.095 41.0562C227.81 35.4443 235.977 32.6384 245.597 32.6384C255.218 32.6384 263.235 34.4422 269.648 38.0499C269.748 39.052 269.799 40.004 269.799 40.9059C269.799 46.618 268.496 52.0294 265.89 57.1403H252.662C251.259 54.635 250.408 51.6286 250.107 48.1212C248.904 48.021 247.301 47.9708 245.297 47.9708Z" fill="#CE4536" />
  <path d="M313.721 110.203C301.695 110.203 292.626 106.996 286.513 100.582C280.5 94.1686 277.494 84.8489 277.494 72.623C277.494 65.2073 278.546 58.8439 280.651 53.5326C282.755 48.1212 285.611 43.9624 289.219 41.0562C296.234 35.4443 304.401 32.6384 313.721 32.6384C323.041 32.6384 330.156 35.0435 335.066 39.8537C340.077 44.5636 342.582 53.0817 342.582 65.4077C342.582 72.623 339.024 76.2307 331.909 76.2307H299.29C299.691 82.544 301.294 87.0034 304.1 89.609C307.007 92.2145 311.566 93.5172 317.779 93.5172C321.187 93.5172 324.443 93.1164 327.55 92.3147C330.657 91.513 332.911 90.7113 334.314 89.9096L336.419 88.7071L340.928 100.733C340.327 101.434 339.425 102.336 338.223 103.438C337.12 104.44 334.214 105.843 329.504 107.647C324.894 109.351 319.633 110.203 313.721 110.203ZM323.191 62.8523C323.391 61.4494 323.491 59.7458 323.491 57.7415C323.491 55.7373 322.69 53.6328 321.086 51.4282C319.483 49.1233 316.677 47.9708 312.669 47.9708C308.76 47.9708 305.754 49.1734 303.649 51.5785C301.545 53.9836 300.142 58.0422 299.441 63.7542L323.191 62.8523Z" fill="#CE4536" />
  <path d="M350.007 2.27414C355.619 0.971386 360.83 0.320007 365.64 0.320007C370.451 0.320007 374.509 0.470326 377.816 0.770965V38.3505C380.221 36.7471 383.428 35.3942 387.437 34.2919C391.445 33.1896 395.003 32.6384 398.109 32.6384C408.03 32.6384 414.895 35.0435 418.703 39.8537C422.511 44.6638 424.415 51.9793 424.415 61.8001V92.3147C428.323 93.8179 431.079 95.5215 432.682 97.4255L431.179 109H396.606L395.103 97.4255C396.506 95.5215 399.262 93.8179 403.37 92.3147V62.5517C403.37 57.1403 402.468 53.5326 400.665 51.7288C398.961 49.8248 395.804 48.8728 391.195 48.8728C386.585 48.8728 382.125 50.4762 377.816 53.6829V92.3147C381.724 93.8179 384.48 95.5215 386.084 97.4255L384.581 109H350.007L348.504 97.4255C349.907 95.5215 352.663 93.8179 356.772 92.3147V18.9595C353.264 17.7569 350.508 16.0533 348.504 13.8486L350.007 2.27414Z" fill="#CE4536" />
  <path d="M472.668 110.203C460.843 110.203 452.075 107.046 446.362 100.733C440.65 94.4191 437.794 84.899 437.794 72.1721C437.794 59.3449 440.951 49.5742 447.264 42.86C453.678 36.0456 462.847 32.6384 474.773 32.6384C486.698 32.6384 495.516 35.6448 501.229 41.6575C507.041 47.6702 509.947 57.0901 509.947 69.9173C509.947 82.6442 506.69 92.5652 500.176 99.6803C493.763 106.695 484.593 110.203 472.668 110.203ZM459.44 70.8192C459.44 86.8531 464.25 94.8701 473.871 94.8701C478.781 94.8701 482.389 93.0663 484.694 89.4586C487.099 85.7508 488.301 79.7381 488.301 71.4205C488.301 55.7874 483.391 47.9708 473.57 47.9708C468.76 47.9708 465.202 49.7246 462.897 53.232C460.593 56.6392 459.44 62.5016 459.44 70.8192Z" fill="#CE4536" />
  <path d="M517.354 2.27414C522.966 0.971386 528.177 0.320007 532.987 0.320007C537.797 0.320007 541.856 0.470326 545.163 0.770965V92.3147C549.071 93.8179 551.827 95.5215 553.43 97.4255L551.927 109H517.354L515.85 97.4255C517.253 95.5215 520.009 93.8179 524.118 92.3147V18.9595C520.611 17.7569 517.855 16.0533 515.85 13.8486L517.354 2.27414Z" fill="#CE4536" />
  <path d="M598.72 2.27414C604.432 0.971386 609.894 0.320007 615.105 0.320007C620.316 0.320007 624.776 0.470326 628.483 0.770965V90.9618C631.49 91.4629 634.246 92.3147 636.751 93.5172V105.392C630.738 108.599 623.122 110.203 613.903 110.203C612.9 109.701 611.898 108.8 610.896 107.497C609.994 106.194 609.493 104.941 609.393 103.739C607.188 105.543 604.332 107.096 600.825 108.399C597.317 109.601 593.86 110.203 590.453 110.203C579.63 110.203 571.763 107.296 566.853 101.484C562.043 95.5716 559.638 85.9512 559.638 72.623C559.638 57.491 563.346 46.8685 570.761 40.7556C577.275 35.3441 585.292 32.6384 594.812 32.6384C599.021 32.6384 603.23 33.1395 607.439 34.1416V19.2601C602.829 17.9573 599.422 16.1535 597.217 13.8486L598.72 2.27414ZM593.61 94.8701C599.322 94.8701 603.931 93.1665 607.439 89.7593V49.474C603.33 48.4719 598.971 47.9708 594.361 47.9708C589.751 47.9708 586.394 50.0252 584.29 54.1339C582.286 58.1424 581.284 64.2052 581.284 72.3224C581.284 80.3393 582.286 86.1015 584.29 89.609C586.294 93.1164 589.401 94.8701 593.61 94.8701Z" fill="#CE4536" />
  <path d="M646.024 44.9645C646.024 43.4613 646.074 41.8579 646.174 40.1543C655.494 35.1437 665.515 32.6384 676.238 32.6384C686.96 32.6384 694.627 34.6928 699.236 38.8014C703.946 42.8099 706.301 49.5241 706.301 58.9441V90.9618C709.809 91.6633 712.564 92.5151 714.569 93.5172V106.595C709.458 109 702.142 110.203 692.622 110.203C691.62 107.597 690.768 104.44 690.067 100.733C685.758 107.046 677.941 110.203 666.617 110.203C659.903 110.203 654.141 108.248 649.331 104.34C644.621 100.432 642.266 95.1206 642.266 88.4064C642.266 81.6922 644.47 76.4311 648.88 72.623C653.389 68.7147 660.053 66.7606 668.872 66.7606H685.257V59.5453C685.257 51.7288 681.098 47.8205 672.78 47.8205C669.674 47.8205 667.118 48.1212 665.114 48.7224C664.914 52.9313 664.312 56.1882 663.31 58.4931H648.579C646.875 54.9857 646.024 50.4761 646.024 44.9645ZM673.081 94.8701C678.192 94.8701 682.25 93.3669 685.257 90.3606V78.0345H674.734C667.519 78.0345 663.911 80.7903 663.911 86.302C663.911 88.8073 664.663 90.8616 666.166 92.465C667.77 94.0684 670.075 94.8701 673.081 94.8701Z" fill="#CE4536" />
  <path d="M747.296 14.9009V33.841H768.791V46.4677H747.296V84.4982C747.296 87.7049 747.747 90.0599 748.649 91.5631C749.55 92.9661 751.705 93.6676 755.112 93.6676C758.519 93.6676 762.177 92.916 766.085 91.4128L770.595 103.138C762.879 107.046 754.962 109 746.845 109C738.828 109 733.366 107.296 730.46 103.889C727.654 100.382 726.251 95.3211 726.251 88.7071V46.4677H719.487L717.833 37.2983C719.437 35.3942 722.744 33.4902 727.754 31.5862C728.957 23.3688 731.813 17.807 736.323 14.9009H747.296Z" fill="#CE4536" />
  <path d="M811.943 110.203C799.918 110.203 790.848 106.996 784.736 100.582C778.723 94.1686 775.716 84.8489 775.716 72.623C775.716 65.2073 776.769 58.8439 778.873 53.5326C780.978 48.1212 783.834 43.9624 787.441 41.0562C794.456 35.4443 802.623 32.6384 811.943 32.6384C821.263 32.6384 828.378 35.0435 833.288 39.8537C838.299 44.5636 840.804 53.0817 840.804 65.4077C840.804 72.623 837.247 76.2307 830.132 76.2307H797.513C797.913 82.544 799.517 87.0034 802.323 89.609C805.229 92.2145 809.789 93.5172 816.002 93.5172C819.409 93.5172 822.666 93.1164 825.772 92.3147C828.879 91.513 831.134 90.7113 832.537 89.9096L834.641 88.7071L839.151 100.733C838.549 101.434 837.647 102.336 836.445 103.438C835.343 104.44 832.436 105.843 827.727 107.647C823.117 109.351 817.856 110.203 811.943 110.203ZM821.413 62.8523C821.614 61.4494 821.714 59.7458 821.714 57.7415C821.714 55.7373 820.912 53.6328 819.309 51.4282C817.705 49.1233 814.899 47.9708 810.891 47.9708C806.983 47.9708 803.976 49.1734 801.872 51.5785C799.767 53.9836 798.364 58.0422 797.663 63.7542L821.413 62.8523Z" fill="#CE4536" />
</svg>
